<svg xmlns="http://www.w3.org/2000/svg" viewBox="0 0 64 64" role="img" aria-label="Hours distribution">
  <defs>
    <linearGradient id="bg" x1="0%" x2="100%" y1="0%" y2="100%">
      <stop offset="0%" stop-color="#f97316"/>
      <stop offset="100%" stop-color="#0ea5a4"/>
    </linearGradient>
  </defs>
  <rect x="4" y="4" width="56" height="56" rx="14" fill="url(#bg)"/>
  <g fill="none" stroke="#ffffff" stroke-linecap="round" stroke-width="4">
    <path d="M20 18a18 18 0 0 1 24 0"/>
    <path d="M15 30a18 18 0 0 1 3-9"/>
    <path d="M49 21a18 18 0 0 1 3 9"/>
    <path d="M18 42a18 18 0 0 1-3-9"/>
    <path d="M52 33a18 18 0 0 1-3 9"/>
  </g>
  <circle cx="32" cy="32" r="12" fill="#ffffff"/>
  <g stroke="#1f2937" stroke-linecap="round" stroke-width="3">
    <line x1="32" y1="32" x2="32" y2="24"/>
    <line x1="32" y1="32" x2="38" y2="35"/>
  </g>
</svg>
